<?xml version="1.0" encoding="utf-8"?>
<!-- Generator: Adobe Illustrator 20.0.0, SVG Export Plug-In . SVG Version: 6.00 Build 0)  -->
<svg version="1.1" id="Layer_1" xmlns="http://www.w3.org/2000/svg" xmlns:xlink="http://www.w3.org/1999/xlink" x="0px" y="0px"
	 viewBox="0 0 249.4 164.4" style="enable-background:new 0 0 249.4 164.4;" xml:space="preserve">
<style type="text/css">
	.st0{fill:#EC6608;}
</style>
<g>
	<path class="st0" d="M240.8,85.5c0,0-2.3,9.8-9,9.8c0,0-1.6-0.2-1.6-1.6c0-1.3,0-30,0-30s-29-3-33.6,23.3c-1,2.8-3.5,8.2-8.5,8.2
		c0,0-1.6-0.2-1.6-1.6c0-1.3,0-3,0-3c0-5.2-3.2-7.4-6.8-8.3c3.7-2.2,6.8-5.4,6.8-9.8c0-9.4-13.8-12.8-22.8-6
		c-1.7-2.4-3.6-2.8-5.1-2.9c-8.1-0.6-13.1,3.8-15.9,7.3v-7.3h-11.8v23.3c-1,2.8-3.5,8.2-8.5,8.2c0,0-1.6-0.2-1.6-1.6
		c0-1.3,0-30,0-30s-28.7-3-33.6,23c-0.8,2.5-3.3,9.2-8.7,8.8c-0.6,0-1.6-0.2-1.6-1.6c0-1.3,0-15.8,0-15.8v-8.4
		c0-4.9-3.9-5.6-5.9-5.8c-8.1-0.6-13.1,3.8-15.9,7.3V54.2c0-4.9-3.9-5.6-5.9-5.8c-8.6-0.6-13.6,4.2-16.4,7.9V38.6
		c0-4.9-3.9-5.6-5.9-5.8C11.4,31.7,7.3,46.2,7.3,46.2l2.9,2.3c0,0,2.3-9.8,9-9.8c0,0,1.6,0.2,1.6,1.6s0,61.1,0,61.1h11.7V64
		c0,0,2.3-9.8,9-9.8c0,0,1.6,0.2,1.6,1.6s0,45.5,0,45.5h11.7V78c1-2.8,3.5-8.2,8.5-8.2c0,0,1.6,0.2,1.6,1.6s0,15.8,0,15.8v8.4
		c0,4.9,3.9,5.6,5.9,5.8c8.3,0.6,13.2-3.9,16.1-7.5c0.6,6.4,3.6,7.2,5.9,7.3c8.2,0.1,13.1-3.8,15.9-7.3v1.5c0,5,3.9,5.6,6,5.8
		c8.1,0.6,13.1-3.8,15.9-7.3V98c-0.2,4.7-13.1,10.3-13.1,22.8s13.1,11.2,13.1,11.2s11.8-1.9,11.8-15.6V77.7c1-2.8,3.5-8.2,8.5-8.2
		c0,0,1.6,0.2,1.6,1.6c0,1.3,0,30,0,30h11.8V71.3c1.4-1.1,3.9-2.4,7.1-1.7c5.3,1,3.7,13.3-3.7,13v4.3c0,0,0.6-0.1,1.6-0.4
		c5.4-0.7,5.1,5.8,5.1,5.8v3c0,5,3.9,5.6,6,5.8c8.2,0.6,13.1-3.8,16-7.3c0.4,6.1,3.6,7.3,5.9,7.3c8.2,0.1,13.1-3.8,15.9-7.3v1.5
		c0,5,3.9,5.6,6,5.8c15.3,1.1,19.3-13.4,19.3-13.4L240.8,85.5z M108.9,85.1c-0.2,2.9-1.3,7.7-6.1,9.7c-1,0.2-4,0-4-10.6
		c0-9,5.1-14,10.1-16.1C108.9,68.1,109.3,80.8,108.9,85.1z M130.8,116.4C130.8,116.4,130.8,116.4,130.8,116.4c0,0.1,0,0.4,0,2.5
		c0,2.8-0.6,7.1-4.6,7.1s-5.1-5.6-3.6-9.6c1-2.5,5.1-7.1,8.1-10.9V116.4z M218.4,85.1c0,0-1.3,7.7-6.1,9.7c-1,0.2-4,0-4-10.6
		c0-9,5.1-14,10.1-16.1V85.1z"/>
	<circle class="st0" cx="136.7" cy="52.3" r="6.4"/>
</g>
</svg>
